<svg width="100" height="144" viewBox="0 0 100 144" fill="none" xmlns="http://www.w3.org/2000/svg">
<path d="M49.6123 8.56201C27.3304 8.56201 9.30225 25.8072 9.30225 47.0582C9.30225 68.3092 49.6123 129.211 49.6123 129.211C49.6123 129.211 89.9224 68.3092 89.9224 47.0582C89.9224 25.8072 71.8943 8.56201 49.6123 8.56201Z" fill="#F58021"/>
<path d="M40.0228 68.5528C43.2844 67.7814 45.3465 65.6161 47.4355 63.3154C47.1525 63.2343 46.9368 63.1666 46.7212 63.1125C43.8505 62.3817 41.2088 61.1366 38.7828 59.445C37.2868 58.4029 36.0603 57.0902 35.1304 55.4933C35.0091 55.2903 34.9147 55.0738 34.8204 54.8573C34.7934 54.8031 34.7934 54.7355 34.7665 54.546C35.683 54.8302 36.5455 55.1009 37.3946 55.3715C37.4216 55.3445 37.4351 55.3309 37.462 55.3039C37.3677 55.2227 37.2868 55.1415 37.1925 55.0738C36.0873 54.3565 35.0091 53.6122 33.8904 52.9356C32.61 52.1507 31.2623 51.474 30.0223 50.662C28.3645 49.5658 27.192 48.0231 26.3429 46.2367C26.3025 46.1555 26.289 46.0743 26.2755 45.9931C26.262 45.9525 26.2755 45.8984 26.2755 45.7766C27.6502 46.372 28.9306 47.2111 30.521 47.0622C27.3942 45.2623 25.4534 42.7452 25.5881 38.9559C26.9224 40.431 28.2298 41.8926 29.5371 43.3541C29.5641 43.3271 29.6045 43.2865 29.6315 43.2594C29.0923 42.2038 28.4589 41.1753 28.0546 40.0656C27.6502 38.9559 27.3807 37.7514 27.2459 36.5741C27.1111 35.3967 27.2189 34.1922 27.2189 33.0013C27.2863 32.9878 27.3537 32.9878 27.4076 32.9743C28.0411 34.4088 28.6745 35.8433 29.308 37.2913C29.3754 37.2913 29.4428 37.2778 29.5102 37.2778C29.4832 34.6659 29.7662 32.1081 30.9657 29.7669C31.0197 29.7669 31.0736 29.7669 31.1275 29.7805C31.1275 30.3624 31.1544 30.9308 31.1275 31.5127C30.9792 34.3682 32.0709 36.8041 33.7017 39.0236C34.7934 40.4987 36.1412 41.7302 37.5968 42.8399C39.5106 44.3015 41.6536 45.3706 43.7965 46.4262C45.7912 47.4005 47.5433 48.7268 49.1876 50.2154C50.185 51.1221 51.2228 51.9747 52.2471 52.8544C52.5301 53.098 52.8131 53.3686 53.1366 53.6664C53.6622 52.4484 54.1474 51.3116 54.6326 50.1613C55.8052 47.4276 57.5708 45.127 59.7542 43.1376C61.4928 41.5542 63.2584 40.025 64.997 38.4552C67.3556 36.3169 68.8247 33.6644 69.2964 30.4977C69.4716 29.3745 69.3907 28.1971 69.4312 27.0603C69.4312 26.8708 69.4312 26.6678 69.4986 26.4648C70.3476 28.4136 70.5903 30.4706 70.7924 32.6089C71.628 30.9037 72.4502 29.1985 73.2858 27.4798C73.3532 27.4934 73.4206 27.5069 73.4745 27.5204C73.3801 29.2662 73.3667 31.012 73.1645 32.7442C72.9623 34.4629 72.5715 36.1545 72.2615 37.792C72.6793 37.1425 73.1645 36.3981 73.7306 35.5455C73.771 37.2101 73.7171 38.7123 73.0162 40.1333C72.3289 41.5407 71.2237 42.5963 70.0242 43.6383C70.6846 43.7737 71.2102 43.5436 71.7224 43.2865C72.2211 43.0429 72.6793 42.7452 73.2588 42.4068C73.2049 42.664 73.178 42.8399 73.1241 43.0023C72.3963 44.9781 71.2641 46.6833 69.5659 47.9419C68.5282 48.7268 67.423 49.417 66.3987 50.2019C65.7518 50.7026 65.2935 51.0139 65.2666 51.7041C65.6978 51.5552 66.1157 51.4199 66.6143 51.2575C65.7787 54.1265 63.5684 55.8858 61.641 57.9428C61.8297 58.024 61.978 58.0781 62.1262 58.1458C63.0832 58.5383 63.8918 59.1337 64.4444 60.0269C64.8622 60.69 64.9566 61.3938 64.7814 62.1651C64.7274 62.3952 64.8622 62.7065 65.0105 62.9095C65.4687 63.6132 65.5361 64.3304 65.1318 65.0612C64.7409 65.7785 64.094 66.1303 63.2449 66.1845C63.9188 64.9665 63.8918 64.6958 62.9753 64.0462C62.881 64.547 62.7867 65.0206 62.6923 65.5213C62.0858 65.0206 61.5602 64.4252 60.8998 64.0733C60.2259 63.7214 59.4307 63.6267 58.622 63.3966C58.6625 63.5726 58.6625 63.6808 58.7029 63.7756C59.2959 65.2777 59.8485 66.807 60.5224 68.2821C60.765 68.8234 61.2502 69.2835 61.695 69.6895C62.1128 70.0685 62.4093 69.9331 62.571 69.3783C62.6788 68.9858 62.7193 68.5798 62.7866 68.1874C62.854 67.8355 63.0427 67.6866 63.2853 67.7949C63.3392 68.1197 63.4066 68.3768 63.4201 68.634C63.4336 68.9046 63.4336 69.1888 63.3797 69.4459C63.3258 69.676 63.1775 69.8925 63.0697 70.1091C63.0966 70.1497 63.1371 70.1767 63.164 70.2173C63.5279 69.9737 63.9053 69.7301 64.2557 69.473C64.4309 69.3377 64.5657 69.1617 64.7274 69.0129C65.3609 68.431 65.6709 68.4716 66.1156 69.2429C65.873 69.2159 65.6574 69.1753 65.4283 69.1482C65.3878 70.1497 64.3366 70.1361 63.9053 70.8128C64.4175 70.7857 64.8757 70.7451 65.3339 70.7451C66.0348 70.7451 66.3178 71.0699 66.183 71.7872C65.9809 71.3 65.6439 71.3676 65.3205 71.503C64.6331 71.7872 63.9323 71.6924 63.2314 71.5977C62.4632 71.4894 61.7758 71.5977 61.1154 72.0578C60.6841 72.3691 60.2394 72.6668 59.6194 72.5315C59.4846 72.5044 59.242 72.951 59.0668 73.1675C58.7838 72.7886 58.7972 72.4232 59.269 72.1255C59.5655 71.936 59.9159 71.8413 60.2394 71.706C60.4415 71.6248 60.6572 71.5571 60.8324 71.4218C61.2232 71.124 61.2232 70.9346 60.8459 70.6369C59.9159 69.879 58.9859 69.1347 58.056 68.3768C57.9751 68.3092 57.8808 68.255 57.7999 68.2415C56.5734 68.1332 55.8995 67.3212 55.3874 66.3333C55.2796 66.1168 55.1987 65.8191 54.9022 66.0085C54.7404 66.1168 54.5652 66.4416 54.6192 66.604C54.9022 67.6731 55.5222 68.5122 56.4791 69.0535C56.8969 68.9858 56.9778 67.9573 57.5708 68.5798C57.5169 68.8099 57.4764 68.9452 57.4495 69.0805C57.6112 69.1076 57.7864 69.1753 57.9481 69.1617C58.2177 69.1617 58.4873 69.1076 58.7568 69.0805C58.7703 69.1347 58.7838 69.2023 58.7972 69.2565C58.6086 69.3512 58.4199 69.4459 58.1638 69.5813C59.4577 69.6489 59.4577 69.6489 59.5116 70.3391C59.0938 69.9331 58.6894 70.2579 58.2851 70.3121C57.3686 70.4203 56.7352 70.8534 56.3982 71.7601C56.2904 72.0443 55.9939 72.2473 55.7243 72.5586C55.7378 72.5992 55.7782 72.7345 55.8052 72.8833C55.2256 72.6803 55.0909 72.3962 55.3739 71.8819C55.5895 71.4894 55.8726 71.124 56.1287 70.7451C56.3578 70.4068 56.3578 70.1226 55.9265 69.9331C55.2256 69.6219 54.6326 69.1212 53.8105 69.04C53.5005 69.0129 53.2309 68.5934 52.921 68.3227C52.7727 68.5663 52.5705 68.8505 52.4088 69.1753C51.9371 70.1361 51.1419 70.718 50.1445 70.9887C47.0042 71.8548 44.0391 71.3676 41.2762 69.6489C40.818 69.3783 40.481 68.9587 40.0228 68.5528Z" fill="#20113D"/>
</svg>
