<svg width="160" height="202" viewBox="0 0 160 202" fill="none" xmlns="http://www.w3.org/2000/svg">
<path d="M79.6123 34.4434C57.3304 34.4434 39.3022 51.4491 39.3022 72.4049C39.3022 93.3608 79.6123 153.416 79.6123 153.416C79.6123 153.416 119.922 93.3608 119.922 72.4049C119.922 51.4491 101.894 34.4434 79.6123 34.4434Z" fill="white"/>
<path fill-rule="evenodd" clip-rule="evenodd" d="M88.0579 69.7766C89.3131 68.2658 90.0329 66.5965 90.0637 64.6592C90.0679 64.4485 90.2193 64.2405 90.37 64.0335L90.37 64.0334C90.4415 63.9353 90.5128 63.8373 90.5682 63.7393C90.8614 63.2146 91.1735 62.6966 91.4859 62.1783L91.4859 62.1783L91.4859 62.1783L91.4859 62.1782C92.196 60.9999 92.907 59.82 93.3984 58.555C94.469 55.7952 93.823 54.1016 91.4973 52.341C91.6449 50.4951 92.3833 49.2279 94.4382 48.8624C95.4108 48.6908 96.3543 48.3579 97.3847 47.9945C97.8534 47.8291 98.3402 47.6574 98.8558 47.4917C97.3115 52.1034 95.8472 56.4715 94.3152 61.0405L94.6732 60.9649L94.676 60.9643C96.669 60.5435 98.4925 60.1584 100.332 59.7734C100.8 60.5958 100.437 61.0283 99.7295 61.4243L99.3071 61.659C97.4963 62.665 95.6806 63.6736 93.9337 64.7872C93.3492 65.1588 92.8447 65.8289 92.5801 66.4686C92.1456 67.5294 91.7922 68.6231 91.4296 69.7453C91.2738 70.2278 91.1162 70.7155 90.9497 71.2083L88.0579 69.7766ZM93.4045 69.5337C95.2072 70.8618 95.964 73.719 95.1396 75.9C94.4197 77.7946 92.7523 78.6962 90.2667 78.416C89.5518 78.334 88.8484 78.1769 88.1452 78.0198C87.6986 77.92 87.2521 77.8202 86.8027 77.7398C84.2433 77.2707 82.0529 77.624 80.564 78.7572C80.9085 78.7998 81.2039 78.8364 81.653 78.8912C81.2684 79.608 81.0728 80.3848 80.8832 81.1377C80.6087 82.2277 80.3468 83.2674 79.5426 84.0025C80.001 84.3198 80.4904 84.6321 80.9911 84.9516L80.9911 84.9516C82.1435 85.687 83.3553 86.4603 84.3848 87.4201C86.7781 89.6498 86.6305 92.9822 84.2802 95.4495C83.5752 95.2033 82.8692 94.9571 82.1625 94.7106L82.1614 94.7103C79.4757 93.7737 76.7785 92.8331 74.0853 91.8735C73.6387 91.7134 73.2127 91.4952 72.787 91.2771C72.5968 91.1797 72.4067 91.0823 72.2149 90.9901C69.4277 89.6681 67.9819 87.4506 67.7358 84.4228C67.422 80.5909 68.1787 76.8991 69.0709 73.2438C69.1317 73.2322 69.1818 73.2171 69.2236 73.2045C69.2919 73.184 69.338 73.1701 69.3723 73.189C75.4142 76.2716 80.9762 74.8765 86.2367 71.3065C87.1288 70.7034 87.8056 70.6729 88.6608 71.1177C89.1654 71.3796 89.676 71.6294 90.1929 71.8609C91.6756 72.5249 92.3463 72.263 92.9431 70.7765C93.0422 70.5273 93.1342 70.2735 93.228 70.015L93.2282 70.0145C93.2856 69.856 93.3437 69.6957 93.4045 69.5337ZM87.1992 82.5166L87.2003 82.5133C87.5953 81.3279 88.0065 80.0943 88.4457 78.7739C87.9877 78.7593 87.5438 78.7436 87.1105 78.7284L87.1098 78.7284L87.1094 78.7283C85.733 78.6799 84.464 78.6352 83.1914 78.6398C82.9207 78.6398 82.5085 78.9688 82.41 79.2369C82.0102 80.3481 81.6506 81.4726 81.304 82.5565L81.3037 82.5575C81.1811 82.941 81.0601 83.3193 80.9395 83.6902L82.1536 84.5681L82.1565 84.5702C83.3328 85.4209 84.4779 86.2491 85.6709 87.1078C86.1707 85.6022 86.6705 84.1026 87.1992 82.5166ZM74.9038 100.657C75.6791 98.3785 76.3989 96.2645 77.1619 94.0287C79.063 94.6197 80.8596 95.1801 82.7792 95.7833C82.6753 96.1009 82.5737 96.4135 82.4735 96.722L82.4735 96.7222C82.0933 97.8926 81.7326 99.0033 81.3333 100.103C81.2472 100.334 80.8965 100.626 80.6627 100.633C79.2451 100.665 77.8202 100.662 76.3137 100.659C75.8521 100.658 75.3829 100.657 74.9038 100.657ZM66.4477 61.9456L66.4477 61.9456C67.011 62.8041 67.5581 63.6379 67.9512 64.5378C68.6772 66.2132 68.991 68.1017 67.5636 69.5395C66.0993 71.0077 64.2781 70.3558 62.6538 69.6491C61.7001 69.2349 60.7649 68.6683 59.9774 67.9921C56.9811 65.4029 57.2764 61.4491 60.605 59.2804C62.7953 57.8548 65.201 57.6355 67.6251 58.4945C68.6772 58.8661 69.2679 58.592 70.0923 57.9767C71.4767 56.9471 72.9656 55.9663 74.553 55.3022C77.457 54.0838 80.2934 54.4554 82.8775 56.3196C83.4497 56.7339 84.028 57.1359 84.7663 57.3553C84.2618 56.7521 83.7573 56.1551 83.1851 55.4789C85.117 53.7365 87.2397 52.7131 89.8546 53.1456C91.7065 53.4502 92.7032 54.6808 92.6602 56.5328C92.611 58.7686 91.4789 60.5597 90.2422 62.3508C87.8488 60.0114 87.1536 57.2639 88.3595 55.1987C87.1905 55.4423 86.5875 56.1551 86.8398 57.4284C87.0859 58.6772 87.492 59.9322 88.0457 61.0775C89.6085 64.3246 89.1224 67.523 86.323 69.8075C82.5268 72.9145 78.1277 73.7857 73.3655 72.5916C72.4488 72.3601 71.5751 71.8301 70.7814 71.2879C69.8401 70.6482 69.4032 69.8136 69.5509 68.516C69.6986 67.1574 69.5017 65.6953 69.151 64.3551C68.6834 62.6006 67.4282 61.4126 65.6809 60.7486C65.9312 61.1584 66.1911 61.5545 66.4477 61.9456ZM82.6498 71.5803C82.6198 71.5893 82.5901 71.5974 82.5608 71.6047C81.6308 71.8401 81.0278 71.2465 80.5298 70.5629C80.4135 70.4035 80.3029 70.2391 80.1953 70.0791L80.1952 70.079L80.1642 70.0329C79.2355 68.6508 78.8476 67.1348 79.1576 65.52C79.1745 65.4321 79.1935 65.3439 79.2145 65.2554C79.2193 65.2354 79.2241 65.2154 79.2291 65.1953C79.6105 63.6662 80.7734 63.319 81.9547 64.379C83.296 65.5852 83.8128 67.1753 83.8805 68.9603C83.8706 69.0763 83.8628 69.1954 83.8549 69.3159L83.8549 69.3162V69.3162C83.8339 69.6375 83.8123 69.9686 83.7484 70.2776C83.6276 70.8625 83.3555 71.3686 82.6498 71.5803ZM77.5801 65.7197C77.3979 65.5787 77.2349 65.4299 77.0895 65.2972C76.8078 65.0399 76.5919 64.8428 76.4295 64.879C76.1803 64.9343 75.9761 65.1798 75.7708 65.4266C75.6821 65.5332 75.5933 65.64 75.5005 65.7319C75.5909 65.814 75.6796 65.9138 75.7684 66.0136L75.7684 66.0136C75.9694 66.2398 76.1707 66.4662 76.3926 66.4873C76.5884 66.5075 76.8058 66.3296 77.0896 66.0974L77.0896 66.0973C77.234 65.9792 77.3955 65.847 77.5801 65.7197ZM85.64 63.3438L85.6397 63.3436L85.6401 63.3433C85.419 63.2078 85.2353 63.0772 85.0766 62.9644C84.7716 62.7475 84.5585 62.5961 84.3481 62.6001C84.3426 62.6002 84.3371 62.6005 84.3315 62.601C84.0587 62.6188 83.5732 63.0963 83.6097 63.2768C83.6773 63.5997 84.0465 64.0383 84.348 64.0931C84.3759 64.0978 84.4044 64.0984 84.4337 64.0952C84.5676 64.0823 84.7204 63.9878 84.9116 63.8514C84.9617 63.8157 85.0144 63.7772 85.07 63.7365C85.2321 63.618 85.4192 63.4812 85.64 63.3438Z" fill="#20113D"/>
<g filter="url(#filter0_d)">
<path d="M80.0001 28.3027C53.6474 28.3027 32.3257 47.9416 32.3257 72.1422C32.3257 96.3428 80.0001 165.697 80.0001 165.697C80.0001 165.697 127.675 96.3428 127.675 72.1422C127.675 47.9416 106.353 28.3027 80.0001 28.3027Z" stroke="white" stroke-width="3" stroke-miterlimit="10" stroke-linejoin="round"/>
</g>
<defs>
<filter id="filter0_d" x="0.825684" y="0.802734" width="158.349" height="200.395" filterUnits="userSpaceOnUse" color-interpolation-filters="sRGB">
<feFlood flood-opacity="0" result="BackgroundImageFix"/>
<feColorMatrix in="SourceAlpha" type="matrix" values="0 0 0 0 0 0 0 0 0 0 0 0 0 0 0 0 0 0 127 0"/>
<feOffset dy="4"/>
<feGaussianBlur stdDeviation="15"/>
<feColorMatrix type="matrix" values="0 0 0 0 0 0 0 0 0 0 0 0 0 0 0 0 0 0 0.5 0"/>
<feBlend mode="normal" in2="BackgroundImageFix" result="effect1_dropShadow"/>
<feBlend mode="normal" in="SourceGraphic" in2="effect1_dropShadow" result="shape"/>
</filter>
</defs>
</svg>
