<svg width="160" height="202" viewBox="0 0 160 202" fill="none" xmlns="http://www.w3.org/2000/svg">
<path d="M79.6123 34.4434C57.3304 34.4434 39.3022 51.4491 39.3022 72.4049C39.3022 93.3608 79.6123 153.416 79.6123 153.416C79.6123 153.416 119.922 93.3608 119.922 72.4049C119.922 51.4491 101.894 34.4434 79.6123 34.4434Z" fill="white"/>
<path d="M65.1415 82.606C65.1069 82.6666 65.0781 82.7358 65.0088 82.8569C64.2308 81.5689 64.0024 80.1459 63.7245 78.7428C63.6749 78.7251 63.6167 78.7131 63.5729 78.7041C63.4062 79.1284 63.184 79.5263 63.0843 79.9569C62.739 81.367 62.848 82.7804 63.1929 84.1897C63.6147 85.8631 64.0366 87.5364 64.3973 89.2122C64.6657 90.4704 64.8235 91.751 64.5475 93.0401C64.246 94.4592 63.6113 95.6067 62.164 96.1432C61.5188 96.3788 60.8836 96.2931 60.2967 95.9617C59.7244 95.6334 59.6487 95.0539 60.1416 94.629C60.4343 94.3735 60.7678 94.1039 61.1282 93.9675C61.8402 93.7006 62.2045 93.1967 62.2592 92.4937C62.3113 91.8427 62.3311 91.1626 62.2144 90.522C61.8913 88.8089 61.5043 87.1127 61.094 85.4192C60.6331 83.5198 60.3616 81.6218 60.6896 79.6818C60.9752 77.9963 61.7104 76.5687 63.0618 75.4786C63.1604 75.4011 63.2503 75.3294 63.3489 75.252C63.4098 75.2119 63.4679 75.1863 63.5783 75.1263C63.6644 75.4598 63.7329 75.7671 63.8101 76.0687C64.2594 73.9357 64.3879 71.699 66.185 70.0766C68.8302 71.5461 70.3004 73.8263 70.8973 76.7311C71.4193 73.4176 69.4134 71.1248 67.4536 68.7514C67.9413 68.4683 68.4029 68.2025 68.8645 67.9366C69.2565 67.7166 69.6484 67.4966 70.0432 67.2621C70.9316 66.7533 70.9577 66.7361 71.5619 67.5973C72.1279 68.4207 72.6243 69.2898 73.141 70.133C73.2379 70.2958 73.3261 70.4644 73.4724 70.6073C73.3715 69.0752 72.7358 67.7188 71.9603 66.341C72.843 65.8611 73.7024 65.384 74.5853 64.9417C74.7043 64.876 74.9466 64.9936 75.0955 65.0844C76.7807 66.1156 77.7698 67.6801 78.4572 69.4683C78.6636 69.9995 78.844 70.5479 79.0825 71.0707C79.0719 68.3843 77.6982 66.1917 76.2922 63.9323C77.2934 63.2738 78.2685 62.6325 79.3045 61.9511C80.2909 62.9888 80.8771 64.3275 81.5185 65.6551C81.5773 64.6221 81.2931 63.6763 80.7849 62.7897C80.6057 62.4671 80.4177 62.1502 80.2037 61.8505C79.9427 61.481 79.9469 61.151 80.2684 60.8263C80.9174 60.1855 81.5546 59.5272 82.2036 58.8864C84.7946 60.5553 86.3491 62.8302 86.9375 65.7785C87.0753 64.2279 86.6574 62.7659 86.0855 61.3549C85.5164 59.9295 84.5932 58.7243 83.4346 57.5985C84.7505 56.4184 86.0201 55.2813 87.3244 54.1213C88.5338 55.4907 89.5304 56.8237 90.0104 58.4714C89.8791 56.6699 89.2827 55.0359 88.1192 53.5106C88.7378 53.2169 89.2808 52.9227 89.8475 52.701C89.9696 52.6585 90.1944 52.7875 90.3492 52.887C91.0298 53.3204 91.756 53.5602 92.5827 53.5199C91.6295 53.3161 91.0934 52.6493 90.6702 51.8704C90.3676 51.3269 90.5669 51.0071 91.1606 50.9564C92.15 50.8594 93.1306 50.7305 94.1081 50.5784C94.7802 50.4762 95.4284 50.2638 96.1005 50.1616C97.1158 50.0097 98.0487 50.2394 98.9914 50.6892C99.6977 51.0301 100.525 51.1403 101.315 51.2879C101.796 51.387 102.24 51.7868 102.26 52.2645C102.271 52.5975 102.29 52.9247 102.332 53.2493C102.456 54.162 102.178 54.9242 101.549 55.6143C101.491 55.5271 101.441 55.4717 101.408 55.4049C101.12 54.7139 101.125 54.7226 100.404 54.8823C99.7208 55.0424 99.0639 55.2605 98.5951 55.8331C98.054 56.5036 97.9968 57.2964 98.4802 57.8846C98.8699 58.3709 99.942 58.5089 100.578 58.1662C100.697 58.1005 100.816 58.0348 100.935 57.9691C101.256 58.6893 101.148 59.2385 100.577 59.7149C100.125 60.0879 99.6284 60.4143 99.1121 60.8042C98.5163 60.4409 97.8825 60.0397 97.2314 59.6876C96.5658 59.3325 95.8744 59.0699 94.9993 59.3182C95.3379 59.4857 95.5919 59.6207 95.9422 59.8056C94.501 60.3885 93.5331 61.302 92.9986 62.7107C92.8126 62.1912 92.6324 61.6805 92.411 61.071C92.1795 64.2564 94.6788 68.5529 99.5748 70.0273C99.348 70.1009 99.1707 70.1546 98.9905 70.2227C98.9966 70.2691 98.9939 70.3212 99 70.3675C99.2067 70.3575 99.4077 70.3763 99.6054 70.3343C100.286 70.1887 100.958 70.0113 101.644 69.8744C102.307 69.7403 102.908 69.9241 103.533 70.3687C102.654 70.947 101.844 71.4796 101.043 72.0064C100.358 72.4443 99.6794 72.8909 98.9828 73.3113C98.8463 73.3885 98.6135 73.4158 98.4822 73.3511C95.7269 72.0169 92.8066 71.4456 89.7813 71.4091C88.7972 71.402 87.9196 71.1611 87.116 70.5821C86.9027 70.4329 86.6548 70.3443 86.3576 70.3132C86.6884 70.6745 87.0106 71.0416 87.4029 71.4758C83.7398 71.9846 80.415 73.2023 77.3621 75.1977C76.9714 74.5232 76.6043 73.8837 76.243 73.2529C76.211 73.2614 76.1877 73.2641 76.1557 73.2726C76.2091 73.464 76.2451 73.6669 76.3217 73.8556C76.6993 74.8281 76.6255 75.7828 76.3188 76.7648C75.6167 78.9886 74.1431 80.6626 72.5645 82.2924C71.6897 83.195 70.9086 84.1996 70.1391 85.184C69.5518 85.9352 69.2477 86.8275 69.2321 87.7942C69.2329 87.9447 69.1871 88.1007 69.156 88.2973C68.9984 88.2122 68.867 88.1476 68.7035 88.0538C68.7185 88.132 68.7158 88.1841 68.7334 88.2103C69.4958 89.2695 70.4339 89.974 71.839 89.7295C72.3568 89.6406 72.8493 89.7195 73.2683 90.2493C73.0767 90.3753 72.8939 90.4956 72.7198 90.6101C71.3704 91.4976 70.0151 92.3764 68.6861 93.2757C68.3814 93.4761 68.1978 93.4458 67.9114 93.244C66.9004 92.5246 66.2723 91.5155 65.6964 90.4721C65.4848 90.0827 65.4269 89.567 65.4333 89.1097C65.4375 87.6218 65.5261 86.1288 65.5244 84.6322C65.5297 83.9491 65.3836 83.2649 65.3132 82.5812C65.2551 82.6069 65.2026 82.6036 65.1415 82.606ZM96.3406 51.602C96.3323 51.683 96.3327 51.7582 96.3243 51.8392C96.7763 51.9699 97.2256 52.1526 97.6889 52.2255C97.8579 52.2528 98.0663 52.0024 98.2578 51.8765C98.0882 51.7363 97.9209 51.4687 97.755 51.4646C97.2803 51.4496 96.8062 51.5475 96.3406 51.602Z" fill="#20113D"/>
<path d="M78.5766 81.712C78.501 81.7114 78.3293 81.6986 78.0646 81.6967C78.8299 82.3501 79.6415 82.382 80.4526 82.301C81.4177 82.2068 82.3766 82.0285 83.3418 81.9343C83.9116 81.8863 84.462 82.0146 84.8226 82.6073C84.698 82.7018 84.588 82.7994 84.4662 82.8795C83.0225 83.8293 81.5846 84.7879 80.1205 85.7261C79.9205 85.8577 79.6036 85.8901 79.362 85.8479C78.6371 85.7212 77.9295 85.5454 77.2132 85.3754C76.3745 85.1727 75.8603 84.7062 75.7889 83.7975C75.767 83.485 75.5939 83.1713 75.4296 82.8896C75.1041 82.3493 74.7351 81.8376 74.3659 81.2883C75.7123 80.0629 76.2772 78.4213 76.8974 76.806C77.1703 76.1109 77.6101 75.6455 78.3125 75.3469C78.8887 75.9989 79.369 76.6763 79.1613 77.6177C79.073 77.9902 78.9788 78.354 78.9255 78.7411C78.8052 79.7005 78.6966 80.6774 78.5766 81.712Z" fill="#20113D"/>
<path d="M83.0436 73.0221C84.8071 72.6791 86.4283 72.3669 88.1046 72.0435C88.3631 73.7342 87.883 75.4457 88.6528 77.0389C88.3915 77.1354 88.1563 77.2147 87.9183 77.3084C87.9215 77.3691 87.9335 77.4242 87.9367 77.4849C88.3089 77.4789 88.6958 77.5135 89.0589 77.4381C89.6516 77.3122 90.2117 77.082 90.8013 76.9329C91.4693 76.77 91.9884 77.0572 92.4651 77.5985C91.8998 77.9704 91.352 78.3308 90.8129 78.6856C89.8302 79.3321 88.8593 79.996 87.8591 80.6163C87.6793 80.7221 87.3653 80.74 87.1585 80.6749C86.3285 80.4289 85.7671 79.8176 85.4523 79.0692C84.6196 77.1024 83.8623 75.0986 83.0436 73.0221Z" fill="#20113D"/>
<g filter="url(#filter0_d)">
<path d="M80.0001 28.3027C53.6474 28.3027 32.3257 47.9416 32.3257 72.1422C32.3257 96.3428 80.0001 165.697 80.0001 165.697C80.0001 165.697 127.675 96.3428 127.675 72.1422C127.675 47.9416 106.353 28.3027 80.0001 28.3027Z" stroke="white" stroke-width="3" stroke-miterlimit="10" stroke-linejoin="round"/>
</g>
<defs>
<filter id="filter0_d" x="0.825684" y="0.802734" width="158.349" height="200.395" filterUnits="userSpaceOnUse" color-interpolation-filters="sRGB">
<feFlood flood-opacity="0" result="BackgroundImageFix"/>
<feColorMatrix in="SourceAlpha" type="matrix" values="0 0 0 0 0 0 0 0 0 0 0 0 0 0 0 0 0 0 127 0"/>
<feOffset dy="4"/>
<feGaussianBlur stdDeviation="15"/>
<feColorMatrix type="matrix" values="0 0 0 0 0 0 0 0 0 0 0 0 0 0 0 0 0 0 0.5 0"/>
<feBlend mode="normal" in2="BackgroundImageFix" result="effect1_dropShadow"/>
<feBlend mode="normal" in="SourceGraphic" in2="effect1_dropShadow" result="shape"/>
</filter>
</defs>
</svg>
