<svg width="160" height="202" viewBox="0 0 160 202" fill="none" xmlns="http://www.w3.org/2000/svg">
<path d="M79.6123 34.4434C57.3304 34.4434 39.3022 51.4491 39.3022 72.4049C39.3022 93.3608 79.6123 153.416 79.6123 153.416C79.6123 153.416 119.922 93.3608 119.922 72.4049C119.922 51.4491 101.894 34.4434 79.6123 34.4434Z" fill="white"/>
<path d="M70.0622 87.8168C70.2864 88.3018 70.6308 88.0712 70.9912 88.0633C71.5678 88.0474 71.9201 87.6657 72.4407 87.4431C71.9842 87.308 71.5998 87.1887 71.1914 87.0615C71.0632 87.3239 70.9271 87.6101 70.7829 87.9043C70.7429 87.9043 70.6949 87.9043 70.6548 87.9043C70.6068 87.6896 70.5427 87.4749 70.5267 87.2602C70.5107 87.0058 70.4226 86.8786 70.1503 86.8707C69.9981 86.8627 69.846 86.7673 69.6378 86.6878C69.4856 87.0853 69.3094 87.5306 69.1012 88.0792C68.7488 87.4749 68.8129 86.9104 68.8449 86.3618C68.3804 86.0994 68.3804 86.0994 68.0921 86.9661C68.0361 86.8309 67.94 86.6957 67.932 86.5606C67.8999 86.2267 67.7638 86.0199 67.4034 85.9245C67.1151 85.8371 67.019 85.8689 67.011 86.1789C67.003 86.5447 66.963 86.9184 66.8989 87.2841C66.8749 87.4511 66.7708 87.6101 66.7067 87.777C66.6666 87.777 66.6266 87.777 66.5946 87.777C66.5465 87.626 66.4905 87.4749 66.4424 87.3239C66.3063 86.8707 66.1861 86.4095 66.042 85.9563C65.9859 85.7735 65.8978 85.6701 65.6576 85.7496C65.4974 85.8053 65.3052 85.7576 65.0409 85.7576C64.9769 85.9484 64.8808 86.2108 64.7847 86.4731C64.7446 86.4811 64.6966 86.489 64.6565 86.497C64.5765 86.2664 64.5044 86.0358 64.4083 85.8053C64.3522 85.6701 64.2721 85.5508 64.2001 85.4236C64.112 85.5508 64.0319 85.686 63.9438 85.8132C63.9118 85.8689 63.8797 85.9245 63.7996 86.0756C63.6395 85.7655 63.5193 85.519 63.3832 85.2567C62.2941 85.2169 62.6544 86.179 62.4062 86.7196C62.3661 86.7276 62.3261 86.7355 62.2781 86.7435C62.19 86.497 62.0618 86.2664 62.0298 86.012C61.9897 85.7099 62.0538 85.4077 62.0458 85.0977C62.0458 84.9943 61.9737 84.8989 61.9337 84.7955C61.8216 84.8512 61.6534 84.875 61.6134 84.9545C61.5173 85.1931 61.4692 85.4554 61.317 85.7337C61.261 85.5111 61.1809 85.2885 61.1649 85.0658C61.1168 84.3821 61.0768 83.7063 61.0528 83.0225C61.0207 82.2911 61.277 81.9412 61.9817 81.6788C62.246 81.5755 62.4863 81.3926 62.7586 81.2893C62.9828 81.2018 63.2631 81.0905 63.4793 81.1461C64.0559 81.2813 64.6245 81.4642 65.1691 81.6947C65.6175 81.8856 66.05 81.9969 66.5465 82.0048C67.011 82.0128 67.4755 82.1797 67.924 82.3388C68.2523 82.458 68.5246 82.5455 68.8689 82.3626C69.0451 82.2751 69.3494 82.307 69.5497 82.3944C70.0302 82.5932 70.5027 82.5534 70.9992 82.4819C71.776 82.3785 72.5528 82.3388 73.3376 82.2513C73.5699 82.2274 73.8101 82.1718 74.0183 82.0764C74.3627 81.9174 74.699 81.7265 75.0194 81.5198C75.2196 81.3847 75.3798 81.1779 75.572 81.0269C76.0204 80.6612 76.525 80.6214 77.0775 80.7725C77.2697 80.8281 77.502 80.7407 77.7182 80.7248C77.8463 80.7168 77.9825 80.7009 78.1106 80.693C78.511 80.6612 78.9115 80.6293 79.3199 80.6055C79.6642 80.5816 80.0166 80.4942 80.3369 80.5657C81.0337 80.7248 81.5142 80.3352 82.0027 79.9933C82.0988 79.9297 82.1228 79.5481 82.0267 79.4526C81.5462 78.9677 81.5863 78.4429 81.7704 77.8704C81.9787 77.2185 82.339 76.7017 83.0037 76.4552C83.5723 76.2406 83.7485 75.9146 83.6124 75.3342C83.5964 75.2785 83.5563 75.2229 83.5083 75.1831C83.26 74.9605 83.0198 74.722 82.7475 74.5311C82.6514 74.4675 82.4672 74.4834 82.339 74.5311C82.259 74.555 82.1548 74.7061 82.1709 74.7856C82.267 75.366 81.8025 75.7317 81.6263 76.2167C81.4501 75.843 81.1858 75.4932 81.2819 75.0638C81.346 74.7697 81.2099 74.6107 80.9696 74.5868C80.8174 74.5709 80.6333 74.7061 80.4891 74.8015C80.3369 74.9048 80.1848 75.0241 80.0647 75.1672C79.9445 75.3103 79.8564 75.4852 79.7203 75.6999C79.5361 75.3421 79.6722 75.0002 79.7043 74.6822C79.7283 74.4675 79.8725 74.2608 79.9125 74.0462C79.9365 73.911 79.9045 73.7361 79.8244 73.6248C79.7844 73.5691 79.5842 73.6089 79.464 73.6407C79.2078 73.7122 78.9595 73.7997 78.6792 73.8951C78.5271 73.426 78.8634 73.1398 79.1357 72.8615C79.416 72.5753 79.7603 72.3447 80.1608 72.0267C80.0086 71.9472 79.8885 71.8915 79.6883 71.7882C80.0967 71.6768 80.361 71.5655 80.6413 71.5417C81.0177 71.5178 81.1057 71.2714 81.1538 71.001C81.346 69.8323 81.8425 68.8066 82.5393 67.8684C82.7875 67.5345 83.1399 67.2801 83.4282 66.978C83.5643 66.8428 83.7245 66.6838 83.7725 66.5168C84.1249 65.205 85.0459 64.4178 86.2071 63.8295C86.2391 63.8136 86.2792 63.7977 86.2952 63.7897C86.1831 62.7641 86.079 61.7464 85.9668 60.7128C85.3021 60.363 84.9898 59.6474 84.5413 59.0432C84.5013 58.9875 84.4613 58.9159 84.4052 58.8841C83.8446 58.5343 83.1959 58.264 82.7314 57.8187C82.283 57.3894 81.7464 57.2542 81.2259 57.0316C80.7854 56.8408 80.345 56.65 79.9205 56.4274C79.7363 56.332 79.5922 56.157 79.392 55.9821C79.1197 55.9026 78.7673 55.8231 78.439 55.6959C77.8223 55.4574 77.2377 55.1553 76.613 54.9565C76.1406 54.8054 75.62 54.7895 75.1315 54.6782C74.9313 54.6305 74.7471 54.5113 74.5629 54.4158C74.4988 54.384 74.4348 54.3284 74.3707 54.3284C73.698 54.3045 72.9692 54.4317 72.3526 54.233C71.5518 53.9706 70.7029 54.2171 69.9581 53.8672C69.0531 53.4379 68.1162 53.6764 67.1952 53.6128C67.0911 53.6049 66.971 53.6446 66.8749 53.6128C65.7857 53.2391 64.7606 53.7082 63.7035 53.8116C63.4313 53.8354 63.151 53.8195 62.8707 53.8275C62.7666 53.8275 62.6625 53.8434 62.5583 53.8593C61.6854 54.0104 60.8045 54.1614 59.9396 54.3284C59.6593 54.384 59.379 54.4874 59.1067 54.5828C58.45 54.8054 57.7613 54.9326 57.1207 55.2427C56.0315 55.7754 54.8463 56.1173 53.7892 56.7295C53.1004 57.127 52.3637 57.4371 51.6269 57.7472C51.4267 57.8346 51.1624 57.771 50.9302 57.771C51.0183 57.5643 51.0663 57.3099 51.2185 57.1668C51.4027 56.9839 51.683 56.8885 51.9072 56.7374C52.0113 56.6659 52.1314 56.5625 52.1715 56.4512C52.2836 56.1491 52.4598 55.9583 52.8041 55.9265C52.9163 55.9185 53.0444 55.8072 53.1085 55.7118C53.3167 55.3699 53.5569 55.1155 53.9093 55.1712C54.1335 54.9724 54.3177 54.8213 54.4939 54.6623C54.582 54.5828 54.6541 54.4953 54.7342 54.4079C54.7822 54.3522 54.8142 54.2489 54.8783 54.225C55.4069 53.9865 55.9354 53.7639 56.464 53.5254C56.5761 53.4697 56.6962 53.4061 56.7923 53.3345C57.2328 53.0086 57.7773 52.8416 58.1377 52.3646C58.2338 52.2294 58.6102 52.2771 58.8585 52.2851C59.1067 52.2851 59.2509 52.2055 59.4191 52.0068C59.5872 51.808 59.8755 51.649 60.1318 51.5933C60.4922 51.5218 60.8606 51.6569 61.1489 51.2276C61.269 51.0447 61.7095 51.0845 62.0058 50.997C62.1579 50.9573 62.3902 50.9096 62.4382 50.7983C62.6544 50.3371 63.0388 50.4007 63.4232 50.3848C63.6555 50.3769 63.8957 50.2974 64.128 50.2497C64.4083 50.194 64.6966 50.0668 64.9689 50.0827C65.2411 50.1066 65.4334 50.0827 65.6015 49.868C65.6416 49.8203 65.7056 49.7567 65.7617 49.7567C66.4344 49.7329 66.995 49.1366 67.7318 49.3751C67.8118 49.3989 67.924 49.3274 68.012 49.2956C68.6287 49.073 69.2373 48.8344 69.854 48.6357C70.0222 48.58 70.2384 48.5959 70.4066 48.6516C70.831 48.7867 71.1754 48.6516 71.5598 48.4846C71.776 48.3892 72.0563 48.429 72.3045 48.4131C72.5448 48.3972 72.785 48.3972 73.0253 48.3812C73.0733 48.3812 73.1294 48.3256 73.1775 48.3335C74.0343 48.5641 74.9633 47.9042 75.7962 48.5562C75.8923 48.6357 76.1325 48.5959 76.2767 48.5323C76.613 48.3892 76.9014 48.2779 77.2377 48.5641C77.3338 48.6436 77.558 48.5721 77.7262 48.58C77.9745 48.5959 78.2147 48.6118 78.463 48.6436C78.7833 48.6834 79.1037 48.7867 79.424 48.7788C79.7844 48.7708 80.0887 48.8026 80.377 49.0571C80.5452 49.2002 80.8335 49.2558 81.0737 49.2638C81.4821 49.2717 81.8665 49.2479 82.1629 49.6057C82.1949 49.6454 82.283 49.6534 82.347 49.6454C82.4111 49.6454 82.5072 49.5818 82.5393 49.6057C82.9317 49.9316 83.4442 49.8521 83.8847 50.0191C84.173 50.1304 84.4212 50.3292 84.6935 50.4723C84.7656 50.512 84.8777 50.5041 84.9578 50.4723C85.3102 50.353 85.5264 50.512 85.6625 50.8142C85.7907 51.1004 85.9748 51.2356 86.3032 51.2435C86.4634 51.2515 86.7196 51.3548 86.7677 51.482C86.9038 51.8239 87.1361 51.8875 87.4564 51.8875C87.5525 51.8875 87.6566 51.9511 87.7527 51.9988C89.0981 52.7223 90.4435 53.4538 91.7969 54.1614C93.2705 54.9326 94.3917 56.0934 95.4808 57.302C96.0974 57.9937 96.6901 58.7013 97.3708 59.3612C97.2346 59.1227 97.0664 58.9 96.9623 58.6456C96.8823 58.4628 96.7942 58.1924 96.8742 58.0573C97.1786 57.5405 97.5149 57.0316 97.8993 56.5705C98.1155 56.3161 98.4439 56.2684 98.7722 56.4989C98.8924 56.5864 99.0685 56.6102 99.2287 56.6341C99.5651 56.6897 99.8774 56.7216 100.014 57.127C100.054 57.2463 100.35 57.302 100.534 57.3417C101.071 57.4451 101.239 57.5325 101.399 57.8585C100.766 58.1368 100.798 58.1447 101.271 58.7172C102.16 59.7905 102.736 60.9911 102.496 62.4381C102.48 62.5494 102.544 62.6925 102.6 62.8038C102.993 63.5274 102.985 64.2509 102.568 64.9585C102.24 65.515 101.968 66.1272 101.239 66.326C102.544 69.8641 102.536 73.3783 101.271 76.9243C102.208 77.0833 102.921 77.5683 103.529 78.2282C103.545 78.2441 103.569 78.268 103.585 78.2839C104.074 79.0074 104.594 79.6912 105.195 80.3352C105.491 80.6532 105.587 81.2257 105.643 81.6947C105.716 82.3467 105.667 83.0146 105.659 83.6824C105.651 84.2628 105.868 84.5809 106.396 84.7876C106.701 84.9068 106.997 85.0579 107.277 85.2249C107.429 85.3203 107.541 85.4952 107.67 85.6304C107.646 85.6542 107.63 85.686 107.605 85.7099C107.445 85.6781 107.293 85.6542 107.085 85.6144C107.117 85.7019 107.117 85.7655 107.149 85.7814C107.493 86.0358 107.838 86.2903 108.198 86.5288C108.687 86.8627 108.566 87.4034 108.695 87.8884C108.278 87.5226 107.605 87.8566 107.285 87.3C107.245 87.2284 106.981 87.292 106.917 87.292C106.869 87.9997 106.829 88.6596 106.789 89.3115C106.757 89.3274 106.717 89.3354 106.685 89.3513C106.428 89.0492 106.172 88.747 105.908 88.4529C105.828 88.3654 105.651 88.2461 105.627 88.27C105.515 88.3574 105.371 88.5085 105.387 88.6119C105.427 88.8822 105.307 88.9856 105.091 89.0969C104.963 89.1605 104.875 89.3115 104.771 89.4308C104.674 89.5421 104.586 89.6693 104.498 89.7886C104.458 89.7806 104.418 89.7727 104.378 89.7647C104.362 89.566 104.33 89.3672 104.322 89.1684C104.306 88.8822 104.322 88.596 104.306 88.3097C104.282 87.9917 104.09 87.9122 103.826 88.0951C103.761 88.1428 103.697 88.2064 103.625 88.2143C103.177 88.2938 103.169 88.2938 103.017 88.747C102.937 88.6039 102.873 88.5244 102.84 88.421C102.712 87.952 102.953 87.3 103.369 87.0456C103.81 86.7832 103.874 86.0199 103.649 85.6622C103.393 85.2567 103.121 84.8671 102.873 84.4616C102.664 84.1197 102.568 83.7778 102.704 83.3644C102.849 82.9192 102.6 82.5773 102.144 82.458C101.423 82.2751 100.71 82.0843 99.9575 81.8776C99.6612 82.299 99.3408 82.7681 99.0045 83.2292C98.1476 84.398 97.0825 85.2805 95.6249 85.6224C95.4407 85.6622 95.2726 85.8053 95.1124 85.9086C94.8561 86.0756 94.6159 86.2823 94.2715 86.1471C94.2155 86.1233 94.0953 86.1869 94.0473 86.2505C92.0372 88.906 89.5065 90.9096 86.3432 92.0307C85.0138 92.4998 83.6444 92.8416 82.267 93.1517C81.7865 93.2551 81.2419 93.112 80.7374 93.0245C80.5291 92.9848 80.377 92.945 80.1928 93.0881C78.5831 94.3046 76.8133 94.5431 74.8912 94.0025C73.69 93.6685 72.4887 93.6049 71.2635 93.9547C70.8951 94.0581 70.4706 93.9627 70.0782 93.9627C69.3174 93.9547 68.5646 93.9468 67.8038 93.9468C67.7398 93.9468 67.6677 93.9627 67.6116 93.9945C66.6746 94.5511 65.6576 94.2012 64.6726 94.241C63.5674 94.2887 62.7025 93.6924 61.9177 92.9848C61.6214 92.7144 61.6614 92.3328 62.0058 91.975C62.0858 91.8876 62.1419 91.7524 62.1579 91.6331C62.214 91.2515 62.246 90.8619 62.2861 90.4723C62.3421 90.4644 62.3982 90.4564 62.4462 90.4485C62.5023 90.6154 62.5423 90.7983 62.6224 90.9573C62.7105 91.1243 62.8386 91.4026 62.9588 91.4105C63.191 91.4185 63.4953 91.3469 63.4953 90.9732C63.4953 90.8301 63.5914 90.687 63.7436 90.52C63.8237 90.695 63.8957 90.8699 63.9758 91.0607C64.3122 90.8063 64.6726 90.5836 64.9609 90.2895C65.097 90.1464 65.089 89.8681 65.145 89.6534C65.2331 89.3354 65.2412 88.9776 65.6416 88.7073C65.6816 89.2718 65.7136 89.7727 65.7537 90.2656C65.8097 90.2815 65.8578 90.2974 65.9139 90.3054C66.034 90.0827 66.1461 89.8522 66.3063 89.5501C66.4104 89.7965 66.4824 89.9714 66.5625 90.1543C66.7067 90.1543 66.8428 90.1543 66.979 90.1543C67.0671 89.8999 67.1471 89.6614 67.2673 89.2956C67.3794 89.5182 67.4114 89.6534 67.4915 89.7409C67.5796 89.8363 67.7157 89.9476 67.8359 89.9476C68.0361 89.9555 68.1882 89.8522 68.1802 89.6057C68.1722 89.4467 68.2123 89.2797 68.2283 89.0571C68.4525 89.1923 68.6047 89.2877 68.7648 89.391C68.8529 89.232 68.941 89.081 69.0451 88.8981C69.7659 89.2718 69.3334 88.5244 69.4616 88.3733C69.7178 88.3892 69.918 88.4051 70.1102 88.4131C70.0302 88.2461 70.0462 88.0315 70.0622 87.8168ZM84.3572 71.5814C84.3251 71.5735 84.2931 71.5655 84.2691 71.5496C83.8046 71.8756 83.3401 72.2095 82.8276 72.5673C82.9397 72.8854 83.0278 73.2352 83.1959 73.5453C83.3801 73.8951 83.6364 74.2052 83.5003 74.6425C83.4762 74.7299 83.5323 74.8492 83.5563 74.9525C83.8206 73.8156 84.0849 72.7025 84.3572 71.5814Z" fill="#20113D"/>
<g filter="url(#filter0_d)">
<path d="M80.0001 28.3027C53.6474 28.3027 32.3257 47.9416 32.3257 72.1422C32.3257 96.3428 80.0001 165.697 80.0001 165.697C80.0001 165.697 127.675 96.3428 127.675 72.1422C127.675 47.9416 106.353 28.3027 80.0001 28.3027Z" stroke="white" stroke-width="3" stroke-miterlimit="10" stroke-linejoin="round"/>
</g>
<defs>
<filter id="filter0_d" x="0.825684" y="0.802734" width="158.349" height="200.395" filterUnits="userSpaceOnUse" color-interpolation-filters="sRGB">
<feFlood flood-opacity="0" result="BackgroundImageFix"/>
<feColorMatrix in="SourceAlpha" type="matrix" values="0 0 0 0 0 0 0 0 0 0 0 0 0 0 0 0 0 0 127 0"/>
<feOffset dy="4"/>
<feGaussianBlur stdDeviation="15"/>
<feColorMatrix type="matrix" values="0 0 0 0 0 0 0 0 0 0 0 0 0 0 0 0 0 0 0.5 0"/>
<feBlend mode="normal" in2="BackgroundImageFix" result="effect1_dropShadow"/>
<feBlend mode="normal" in="SourceGraphic" in2="effect1_dropShadow" result="shape"/>
</filter>
</defs>
</svg>
